<svg width="800" height="366" viewBox="0 0 800 366" fill="none" xmlns="http://www.w3.org/2000/svg">
<path d="M388.21 117.494C388.21 120.697 387.633 123.734 386.477 126.607C385.355 129.446 383.786 131.873 381.772 133.887C379.23 136.396 376.242 138.295 372.808 139.582C369.374 140.87 365.033 141.514 359.783 141.514H351.463V169H341.657V95.2573H360.179C364.538 95.2573 368.252 95.6205 371.322 96.3469C374.393 97.0732 377.1 98.2453 379.445 99.8631C382.185 101.745 384.331 104.139 385.883 107.044C387.435 109.917 388.21 113.4 388.21 117.494ZM378.008 117.742C378.008 115.199 377.563 112.987 376.671 111.105C375.813 109.223 374.492 107.688 372.709 106.499C371.157 105.476 369.341 104.75 367.261 104.32C365.214 103.891 362.656 103.677 359.585 103.677H351.463V133.144H358.149C362.111 133.144 365.313 132.83 367.757 132.203C370.2 131.543 372.23 130.387 373.848 128.736C375.301 127.25 376.357 125.633 377.018 123.883C377.678 122.133 378.008 120.086 378.008 117.742ZM440.014 141.365C440.014 150.676 437.768 157.873 433.278 162.958C428.788 168.01 422.812 170.535 415.35 170.535C407.657 170.535 401.599 167.927 397.174 162.71C392.783 157.461 390.588 150.346 390.588 141.365C390.588 132.12 392.849 124.939 397.373 119.822C401.929 114.704 407.921 112.145 415.35 112.145C422.812 112.145 428.788 114.704 433.278 119.822C437.768 124.906 440.014 132.087 440.014 141.365ZM430.406 141.365C430.406 134.2 429.102 128.885 426.493 125.418C423.885 121.918 420.171 120.168 415.35 120.168C410.497 120.168 406.749 121.918 404.108 125.418C401.5 128.885 400.196 134.2 400.196 141.365C400.196 148.299 401.5 153.565 404.108 157.164C406.749 160.729 410.497 162.512 415.35 162.512C420.138 162.512 423.835 160.762 426.444 157.263C429.085 153.73 430.406 148.431 430.406 141.365ZM516.629 113.681L502.613 169H493.996L480.476 126.359L467.054 169H458.486L444.322 113.681H454.029L463.786 156.52L476.91 113.681H484.586L498.057 156.52L507.269 113.681H516.629ZM548.87 170.288C540.054 170.288 533.203 167.811 528.317 162.859C523.463 157.873 521.036 150.808 521.036 141.662C521.036 132.649 523.397 125.484 528.119 120.168C532.84 114.82 539.014 112.145 546.641 112.145C550.075 112.145 553.112 112.641 555.753 113.631C558.395 114.622 560.706 116.173 562.687 118.286C564.668 120.399 566.187 122.991 567.243 126.062C568.3 129.099 568.828 132.83 568.828 137.254V142.306H530.496C530.496 148.744 532.114 153.664 535.349 157.064C538.585 160.465 543.059 162.166 548.77 162.166C550.817 162.166 552.815 161.934 554.763 161.472C556.744 161.01 558.527 160.416 560.112 159.689C561.796 158.93 563.215 158.204 564.371 157.51C565.526 156.784 566.484 156.107 567.243 155.48H567.788V165.632C566.698 166.062 565.345 166.606 563.727 167.267C562.109 167.894 560.656 168.389 559.369 168.752C557.553 169.248 555.902 169.627 554.416 169.891C552.964 170.156 551.115 170.288 548.87 170.288ZM559.765 135.174C559.699 132.665 559.402 130.503 558.874 128.687C558.345 126.871 557.586 125.335 556.595 124.081C555.506 122.694 554.103 121.638 552.386 120.911C550.702 120.185 548.605 119.822 546.096 119.822C543.62 119.822 541.507 120.201 539.757 120.961C538.04 121.687 536.472 122.76 535.052 124.18C533.665 125.633 532.609 127.25 531.882 129.033C531.156 130.783 530.694 132.83 530.496 135.174H559.765ZM607.557 123.685H607.061C606.368 123.487 605.625 123.371 604.833 123.338C604.073 123.272 603.149 123.239 602.059 123.239C599.55 123.239 597.057 123.784 594.581 124.873C592.105 125.963 589.761 127.581 587.549 129.727V169H578.238V113.681H587.549V121.902C590.949 118.897 593.904 116.784 596.413 115.563C598.956 114.308 601.416 113.681 603.793 113.681C604.75 113.681 605.46 113.714 605.922 113.78C606.418 113.813 606.962 113.879 607.557 113.978V123.685ZM333.683 270L358.545 196.257H370.629L395.491 270H385.14L378.454 249.398H350.274L343.588 270H333.683ZM375.73 241.028L364.339 206.261L352.998 241.028H375.73ZM444.322 270H435.012V263.859C432.139 266.368 429.415 268.283 426.84 269.604C424.265 270.891 421.392 271.535 418.223 271.535C415.812 271.535 413.534 271.139 411.388 270.347C409.275 269.554 407.426 268.3 405.841 266.583C404.257 264.866 403.018 262.703 402.127 260.095C401.269 257.487 400.839 254.317 400.839 250.586V214.681H410.15V246.178C410.15 249.117 410.249 251.56 410.447 253.508C410.678 255.423 411.174 257.107 411.933 258.56C412.692 259.979 413.716 261.019 415.003 261.68C416.324 262.34 418.206 262.67 420.649 262.67C422.927 262.67 425.354 262.026 427.929 260.739C430.505 259.451 432.865 257.866 435.012 255.984V214.681H444.322V270ZM474.533 271.09C469.448 271.09 465.486 269.653 462.647 266.781C459.807 263.875 458.387 259.303 458.387 253.062V222.406H452.098V214.681H458.387V198.783H467.698V214.681H484.834V222.406H467.698V248.704C467.698 251.511 467.748 253.673 467.847 255.192C467.946 256.711 468.325 258.131 468.986 259.451C469.547 260.607 470.455 261.482 471.71 262.076C472.964 262.637 474.665 262.918 476.811 262.918C478.329 262.918 479.799 262.703 481.218 262.274C482.638 261.812 483.662 261.432 484.289 261.135H484.834V269.505C483.084 270 481.301 270.38 479.485 270.644C477.702 270.941 476.051 271.09 474.533 271.09ZM537.281 242.365C537.281 251.676 535.036 258.873 530.545 263.958C526.055 269.01 520.079 271.535 512.617 271.535C504.924 271.535 498.866 268.927 494.442 263.71C490.05 258.461 487.855 251.346 487.855 242.365C487.855 233.12 490.116 225.939 494.64 220.822C499.196 215.704 505.188 213.145 512.617 213.145C520.079 213.145 526.055 215.704 530.545 220.822C535.036 225.906 537.281 233.087 537.281 242.365ZM527.673 242.365C527.673 235.2 526.369 229.885 523.76 226.418C521.152 222.918 517.438 221.168 512.617 221.168C507.764 221.168 504.016 222.918 501.375 226.418C498.767 229.885 497.463 235.2 497.463 242.365C497.463 249.299 498.767 254.565 501.375 258.164C504.016 261.729 507.764 263.512 512.617 263.512C517.405 263.512 521.102 261.762 523.711 258.263C526.352 254.73 527.673 249.431 527.673 242.365ZM609.637 270V238.007C609.637 235.465 609.538 233.12 609.34 230.974C609.141 228.795 608.729 227.095 608.101 225.873C607.441 224.553 606.5 223.579 605.278 222.951C604.057 222.324 602.406 222.01 600.326 222.01C598.411 222.01 596.347 222.605 594.135 223.793C591.956 224.949 589.695 226.633 587.35 228.845C587.383 229.406 587.416 230.083 587.449 230.875C587.515 231.635 587.549 232.543 587.549 233.599V270H578.238V238.007C578.238 235.465 578.139 233.12 577.941 230.974C577.743 228.795 577.33 227.095 576.703 225.873C576.042 224.553 575.101 223.579 573.88 222.951C572.658 222.324 571.007 222.01 568.927 222.01C566.913 222.01 564.8 222.638 562.588 223.892C560.376 225.147 558.23 226.748 556.15 228.696V270H546.839V214.681H556.15V220.822C558.593 218.378 561.003 216.497 563.38 215.176C565.791 213.822 568.432 213.145 571.304 213.145C574.573 213.145 577.462 213.888 579.971 215.374C582.513 216.86 584.445 219.303 585.766 222.704C588.572 219.567 591.312 217.19 593.987 215.572C596.661 213.954 599.567 213.145 602.703 213.145C605.08 213.145 607.243 213.525 609.191 214.284C611.139 215.011 612.839 216.199 614.292 217.85C615.778 219.534 616.917 221.631 617.709 224.14C618.535 226.649 618.947 229.802 618.947 233.599V270H609.637ZM662.926 256.381V241.028C660.713 241.226 657.907 241.507 654.506 241.87C651.139 242.2 648.415 242.679 646.335 243.306C643.858 244.065 641.811 245.238 640.194 246.822C638.576 248.374 637.767 250.553 637.767 253.36C637.767 256.529 638.658 258.923 640.441 260.541C642.224 262.159 644.832 262.967 648.266 262.967C651.205 262.967 653.862 262.34 656.24 261.086C658.617 259.798 660.845 258.23 662.926 256.381ZM662.926 264.107C662.166 264.668 661.143 265.46 659.855 266.484C658.6 267.474 657.379 268.267 656.19 268.861C654.539 269.719 652.938 270.38 651.386 270.842C649.867 271.304 647.721 271.535 644.948 271.535C642.67 271.535 640.507 271.106 638.46 270.248C636.413 269.389 634.614 268.184 633.062 266.632C631.576 265.114 630.388 263.248 629.496 261.036C628.605 258.791 628.159 256.43 628.159 253.954C628.159 250.124 628.968 246.872 630.586 244.197C632.204 241.49 634.762 239.344 638.262 237.759C641.366 236.34 645.031 235.366 649.257 234.837C653.483 234.276 658.039 233.863 662.926 233.599V231.816C662.926 229.637 662.595 227.887 661.935 226.567C661.275 225.213 660.35 224.173 659.162 223.447C657.973 222.687 656.52 222.192 654.803 221.961C653.087 221.697 651.32 221.565 649.504 221.565C647.358 221.565 644.832 221.895 641.927 222.555C639.021 223.182 636.116 224.107 633.211 225.328H632.666V215.869C634.383 215.374 636.842 214.829 640.045 214.235C643.248 213.641 646.417 213.343 649.554 213.343C653.351 213.343 656.553 213.641 659.162 214.235C661.77 214.829 664.114 215.902 666.194 217.454C668.208 218.973 669.71 220.937 670.701 223.347C671.691 225.758 672.187 228.696 672.187 232.163V270H662.926V264.107ZM702.05 271.09C696.966 271.09 693.004 269.653 690.164 266.781C687.325 263.875 685.905 259.303 685.905 253.062V222.406H679.615V214.681H685.905V198.783H695.216V214.681H712.351V222.406H695.216V248.704C695.216 251.511 695.265 253.673 695.364 255.192C695.463 256.711 695.843 258.131 696.503 259.451C697.065 260.607 697.973 261.482 699.227 262.076C700.482 262.637 702.182 262.918 704.328 262.918C705.847 262.918 707.316 262.703 708.736 262.274C710.156 261.812 711.179 261.432 711.807 261.135H712.351V269.505C710.602 270 708.819 270.38 707.003 270.644C705.22 270.941 703.569 271.09 702.05 271.09ZM743.305 271.288C734.489 271.288 727.638 268.811 722.752 263.859C717.898 258.873 715.472 251.808 715.472 242.662C715.472 233.649 717.832 226.484 722.554 221.168C727.275 215.82 733.449 213.145 741.076 213.145C744.51 213.145 747.547 213.641 750.189 214.631C752.83 215.622 755.141 217.173 757.122 219.286C759.103 221.399 760.622 223.991 761.678 227.062C762.735 230.099 763.263 233.83 763.263 238.254V243.306H724.931C724.931 249.744 726.549 254.664 729.784 258.064C733.02 261.465 737.494 263.166 743.206 263.166C745.253 263.166 747.25 262.934 749.198 262.472C751.179 262.01 752.962 261.416 754.547 260.689C756.231 259.93 757.65 259.204 758.806 258.51C759.961 257.784 760.919 257.107 761.678 256.48H762.223V266.632C761.134 267.062 759.78 267.606 758.162 268.267C756.544 268.894 755.092 269.389 753.804 269.752C751.988 270.248 750.337 270.627 748.851 270.891C747.399 271.156 745.55 271.288 743.305 271.288ZM754.2 236.174C754.134 233.665 753.837 231.503 753.309 229.687C752.78 227.871 752.021 226.335 751.03 225.081C749.941 223.694 748.538 222.638 746.821 221.911C745.137 221.185 743.04 220.822 740.531 220.822C738.055 220.822 735.942 221.201 734.192 221.961C732.475 222.687 730.907 223.76 729.487 225.18C728.1 226.633 727.044 228.25 726.318 230.033C725.591 231.783 725.129 233.83 724.931 236.174H754.2Z" fill="black"/>
<mask id="mask0_4_24" style="mask-type:alpha" maskUnits="userSpaceOnUse" x="33" y="78" width="266" height="211">
<path d="M202.794 78C205.948 78 208.952 79.3432 211.055 81.6933L295.355 175.911C299.12 180.119 299.12 186.485 295.355 190.693L211.055 284.911C208.952 287.261 205.948 288.604 202.794 288.604H44.1062C34.5249 288.604 29.4568 277.269 35.8456 270.129L113.533 183.302L35.8456 96.4755C29.4568 89.3352 34.5249 78 44.1062 78H202.794Z" fill="white"/>
</mask>
<g mask="url(#mask0_4_24)">
<path d="M207.75 78L113.533 183.302L19.3149 78H207.75Z" fill="url(#paint0_linear_4_24)"/>
<g filter="url(#filter0_f_4_24)">
<path d="M207.75 79.1084L19.3149 289.713H207.75L301.968 184.411L207.75 79.1084Z" fill="black" fill-opacity="0.24"/>
</g>
<g filter="url(#filter1_f_4_24)">
<path d="M207.75 83.5422L19.3149 294.146H207.75L301.968 188.844L207.75 83.5422Z" fill="black" fill-opacity="0.32"/>
</g>
<path d="M19.3149 288.604L207.75 78L301.968 183.302L207.75 288.604H19.3149Z" fill="url(#paint1_linear_4_24)"/>
<path d="M19.3149 288.604L207.75 78L254.859 130.651L113.533 288.604H19.3149Z" fill="url(#paint2_linear_4_24)"/>
</g>
<defs>
<filter id="filter0_f_4_24" x="18.5149" y="78.3084" width="284.253" height="212.204" filterUnits="userSpaceOnUse" color-interpolation-filters="sRGB">
<feFlood flood-opacity="0" result="BackgroundImageFix"/>
<feBlend mode="normal" in="SourceGraphic" in2="BackgroundImageFix" result="shape"/>
<feGaussianBlur stdDeviation="0.4" result="effect1_foregroundBlur_4_24"/>
</filter>
<filter id="filter1_f_4_24" x="11.3149" y="75.5422" width="298.653" height="226.604" filterUnits="userSpaceOnUse" color-interpolation-filters="sRGB">
<feFlood flood-opacity="0" result="BackgroundImageFix"/>
<feBlend mode="normal" in="SourceGraphic" in2="BackgroundImageFix" result="shape"/>
<feGaussianBlur stdDeviation="4" result="effect1_foregroundBlur_4_24"/>
</filter>
<linearGradient id="paint0_linear_4_24" x1="152.328" y1="202.7" x2="113.533" y2="78" gradientUnits="userSpaceOnUse">
<stop stop-color="#0D36A5"/>
<stop offset="1" stop-color="#1152D4"/>
</linearGradient>
<linearGradient id="paint1_linear_4_24" x1="160.641" y1="78" x2="160.641" y2="288.604" gradientUnits="userSpaceOnUse">
<stop stop-color="#84CAFF"/>
<stop offset="1" stop-color="#61B1FB"/>
</linearGradient>
<linearGradient id="paint2_linear_4_24" x1="137.087" y1="78" x2="137.087" y2="288.604" gradientUnits="userSpaceOnUse">
<stop stop-color="#3B90F5"/>
<stop offset="1" stop-color="#2A78EE"/>
</linearGradient>
</defs>
</svg>
